<svg width="75" height="42" viewBox="0 0 75 42" fill="none" xmlns="http://www.w3.org/2000/svg">
<mask id="path-1-inside-1_2_7" fill="white">
<path d="M0 19.9C0 15.4817 3.58172 11.9 8 11.9H67C71.4183 11.9 75 15.4817 75 19.9V29.9667C75 31.0712 74.1046 31.9667 73 31.9667H2C0.895429 31.9667 0 31.0712 0 29.9667V19.9Z"/>
</mask>
<path d="M0 19.9C0 15.4817 3.58172 11.9 8 11.9H67C71.4183 11.9 75 15.4817 75 19.9V29.9667C75 31.0712 74.1046 31.9667 73 31.9667H2C0.895429 31.9667 0 31.0712 0 29.9667V19.9Z" stroke="#6347F9" stroke-width="6" mask="url(#path-1-inside-1_2_7)"/>
<mask id="path-2-inside-2_2_7" fill="white">
<path d="M17 1C17 0.447715 17.4477 0 18 0H49.9091C54.3274 0 57.9091 3.58172 57.9091 8V14.3333H17V1Z"/>
</mask>
<path d="M17 1C17 0.447715 17.4477 0 18 0H49.9091C54.3274 0 57.9091 3.58172 57.9091 8V14.3333H17V1Z" stroke="#6347F9" stroke-width="6" mask="url(#path-2-inside-2_2_7)"/>
<path d="M25.4091 31.25C25.4091 36.9347 21.0308 41.5 15.6818 41.5C10.3328 41.5 5.95454 36.9347 5.95454 31.25C5.95454 25.5653 10.3328 21 15.6818 21C21.0308 21 25.4091 25.5653 25.4091 31.25Z" fill="black" stroke="#A4A4A4"/>
<path d="M70.4091 31.25C70.4091 36.9347 66.0308 41.5 60.6818 41.5C55.3328 41.5 50.9545 36.9347 50.9545 31.25C50.9545 25.5653 55.3328 21 60.6818 21C66.0308 21 70.4091 25.5653 70.4091 31.25Z" fill="black" stroke="#A4A4A4"/>
</svg>
